<svg width="89" height="46" viewBox="0 0 89 46" fill="none" xmlns="http://www.w3.org/2000/svg">
<g id="Group 1">
<path id="M" d="M68.6836 45C68.6836 45.5523 69.1313 46 69.6836 46H73.204H75.6294H77.8662H82.2879H86.5714C87.1237 46 87.5714 45.5523 87.5714 45V25.2778C87.5714 24.7255 87.1237 24.2778 86.5714 24.2778H86.2902C86.0001 24.2778 85.7243 24.4038 85.5343 24.6231L78.9673 32.2059C78.5721 32.6623 77.8656 32.667 77.4643 32.216L70.699 24.613C70.5092 24.3998 70.2374 24.2778 69.9519 24.2778H69.6836C69.1313 24.2778 68.6836 24.7255 68.6836 25.2778V45Z" fill="#F0F4EF"/>
<path id="R" d="M3 24.2105C1.34315 24.2105 0 25.5537 0 27.2105V43C0 44.6569 1.34315 46 3 46H5.33625H7.16701H11.1718H11.96C14.2779 46 15.7202 43.4834 14.5485 41.4835L14.0783 40.6809C13.0927 38.9986 14.0736 36.8628 15.3895 35.4242C16.4932 34.2175 17.0073 32.6705 17.0073 31.0702C17.0073 27.2834 14.3236 24.2105 8.95616 24.2105H3Z" fill="#F0F4EF"/>
<path id="K" d="M81.761 21.7895H82.1397C84.6633 21.7895 86.0593 18.8632 84.4713 16.9018L80.9634 12.5687C80.0709 11.4664 80.0724 9.88972 80.9669 8.78905L84.1338 4.89199C85.727 2.93149 84.3319 0 81.8056 0H81.6972H76.7526H74.2324H71.7773C70.1205 0 68.7773 1.34315 68.7773 3V18.7895C68.7773 20.4463 70.1205 21.7895 71.7773 21.7895H74.2324H76.7526H81.761Z" fill="#F0F4EF"/>
<path id="B" d="M17.1946 15.861C17.1946 14.7306 16.8573 13.6516 16.2523 12.7617C15.6687 11.9033 15.5867 9.1553 16.083 8.24356C16.4775 7.51871 16.7033 6.65106 16.7033 5.64912C16.7033 2.20378 14.0934 0 9.70266 0H0.999999C0.447714 0 0 0.447715 0 1V20.7895C0 21.3418 0.447715 21.7895 1 21.7895H10.0404C14.5847 21.7895 17.1946 19.4615 17.1946 15.861Z" fill="#F0F4EF"/>
<path id="O" d="M41.7577 10.8796C41.7577 4.48518 36.8757 0 30.7348 0C24.6245 0 19.6504 4.48518 19.6504 10.8796C19.6504 17.274 24.6245 21.7895 30.7348 21.7895C36.845 21.7895 41.7577 17.274 41.7577 10.8796Z" fill="#BFCC94"/>
<path id="O_2" d="M41.7577 35.0901C41.7577 28.6957 36.8757 24.2105 30.7348 24.2105C24.6245 24.2105 19.6504 28.6957 19.6504 35.0901C19.6504 41.4845 24.6245 46 30.7348 46C36.845 46 41.7577 41.4845 41.7577 35.0901Z" fill="#344966"/>
<path id="O_3" d="M66.3222 10.8796C66.3222 4.48518 61.4401 0 55.2992 0C49.189 0 44.2148 4.48518 44.2148 10.8796C44.2148 17.274 49.189 21.7895 55.2992 21.7895C61.4094 21.7895 66.3222 17.274 66.3222 10.8796Z" fill="#344966"/>
<path id="O_4" d="M66.3222 35.0901C66.3222 28.6957 61.4401 24.2105 55.2992 24.2105C49.189 24.2105 44.2148 28.6957 44.2148 35.0901C44.2148 41.4845 49.189 46 55.2992 46C61.4094 46 66.3222 41.4845 66.3222 35.0901Z" fill="#BFCC94"/>
</g>
</svg>
