<svg width="63" height="31" viewBox="0 0 63 31" fill="none" xmlns="http://www.w3.org/2000/svg">
<g id="Group 1">
<path id="M" d="M48.3906 30C48.3906 30.5523 48.8383 31 49.3906 31H51.5754H53.2843H54.8602H57.9755H60.6979C61.2502 31 61.6979 30.5523 61.6979 30V17.2093C61.6979 16.7409 61.3182 16.3611 60.8497 16.3611C60.6101 16.3611 60.3817 16.4624 60.2209 16.64L55.8419 21.4765C55.4485 21.911 54.7676 21.9156 54.3684 21.4865L49.8504 16.6298C49.6909 16.4584 49.4674 16.3611 49.2334 16.3611C48.7679 16.3611 48.3906 16.7384 48.3906 17.2038V30Z" fill="#0D1821"/>
<path id="R" d="M3 16.3157C1.34314 16.3157 0 17.6588 0 19.3157V27.9999C0 29.6567 1.34315 30.9999 3 30.9999H3.75963H5.04948H7.87104H8.19512C9.9106 30.9999 10.9633 29.1206 10.0673 27.6577C9.30712 26.4166 10.0509 24.809 10.9964 23.7026C11.6681 22.9167 11.9824 21.9432 11.9824 20.9385C11.9824 18.3865 10.0916 16.3157 6.31002 16.3157H3Z" fill="#0D1821"/>
<path id="K" d="M57.6046 14.6842C59.4592 14.6842 60.4655 12.5143 59.2673 11.0987L57.6074 9.13748C56.6592 8.01722 56.6608 6.37544 57.611 5.25696L59.1523 3.44284C60.3055 2.08546 59.3408 0 57.5597 0H54.0759H52.3004H51.457C49.8002 0 48.457 1.34315 48.457 3V11.6842C48.457 13.3411 49.8002 14.6842 51.457 14.6842H52.3004H54.0759H57.6046Z" fill="#0D1821"/>
<path id="B" d="M12.1144 10.6889C12.1144 10.4048 12.0813 10.1254 12.0177 9.85569C11.777 8.83456 11.6353 5.27869 11.746 4.23542C11.7607 4.09696 11.7682 3.95413 11.7682 3.80702C11.7682 1.48515 9.92945 0 6.83596 0H0.999999C0.447714 0 0 0.447715 0 1V13.6842C0 14.2365 0.447715 14.6842 1 14.6842H7.07392C10.2756 14.6842 12.1144 13.1154 12.1144 10.6889Z" fill="#0D1821"/>
<path id="O" d="M29.4213 7.33189C29.4213 3.02262 25.9817 0 21.6551 0C17.3502 0 13.8457 3.02262 13.8457 7.33189C13.8457 11.6412 17.3502 14.6842 21.6551 14.6842C25.9601 14.6842 29.4213 11.6412 29.4213 7.33189Z" fill="#BFCC94"/>
<path id="O_2" d="M29.4213 23.6476C29.4213 19.3383 25.9817 16.3157 21.6551 16.3157C17.3502 16.3157 13.8457 19.3383 13.8457 23.6476C13.8457 27.9568 17.3502 30.9999 21.6551 30.9999C25.9601 30.9999 29.4213 27.9568 29.4213 23.6476Z" fill="#344966"/>
<path id="O_3" d="M46.726 7.33189C46.726 3.02262 43.2864 0 38.9598 0C34.6549 0 31.1504 3.02262 31.1504 7.33189C31.1504 11.6412 34.6549 14.6842 38.9598 14.6842C43.2648 14.6842 46.726 11.6412 46.726 7.33189Z" fill="#344966"/>
<path id="O_4" d="M46.726 23.6476C46.726 19.3383 43.2864 16.3157 38.9598 16.3157C34.6549 16.3157 31.1504 19.3383 31.1504 23.6476C31.1504 27.9568 34.6549 30.9999 38.9598 30.9999C43.2648 30.9999 46.726 27.9568 46.726 23.6476Z" fill="#BFCC94"/>
</g>
</svg>
